<?xml version="1.0" encoding="UTF-8" standalone="no"?>
<svg
   xmlns:dc="http://purl.org/dc/elements/1.1/"
   xmlns:cc="http://creativecommons.org/ns#"
   xmlns:rdf="http://www.w3.org/1999/02/22-rdf-syntax-ns#"
   xmlns:svg="http://www.w3.org/2000/svg"
   xmlns="http://www.w3.org/2000/svg"
   xmlns:sodipodi="http://sodipodi.sourceforge.net/DTD/sodipodi-0.dtd"
   xmlns:inkscape="http://www.inkscape.org/namespaces/inkscape"
   inkscape:export-ydpi="96"
   inkscape:export-xdpi="96"
   inkscape:export-filename="C:\Users\Michel\source\Projects\Brakasssss Softworks\Les Brakasssss\brakasssss.gitlab.io\static\icon.png"
   width="512"
   height="512"
   viewBox="0 0 512 512"
   version="1.1"
   id="svg8"
   inkscape:version="1.0 (4035a4fb49, 2020-05-01)"
   sodipodi:docname="logo.inkscape.svg">
  <metadata
     id="metadata39">
    <rdf:RDF>
      <cc:Work
         rdf:about="">
        <dc:format>image/svg+xml</dc:format>
        <dc:type
           rdf:resource="http://purl.org/dc/dcmitype/StillImage" />
      </cc:Work>
    </rdf:RDF>
  </metadata>
  <sodipodi:namedview
     inkscape:document-rotation="0"
     id="base"
     pagecolor="#ffffff"
     bordercolor="#666666"
     borderopacity="1.0"
     inkscape:pageopacity="0.0"
     inkscape:pageshadow="2"
     inkscape:zoom="1"
     inkscape:cx="104.94128"
     inkscape:cy="230.94897"
     inkscape:document-units="px"
     inkscape:current-layer="text-brakasssss"
     showgrid="false"
     units="px"
     inkscape:showpageshadow="false"
     inkscape:window-width="1920"
     inkscape:window-height="1027"
     inkscape:window-x="-8"
     inkscape:window-y="-8"
     inkscape:window-maximized="1" />
  <defs
     id="defs2">
    <filter
       id="elevation-6"
       inkscape:label="Drop Shadow"
       style="color-interpolation-filters:sRGB">
      <feFlood
         id="feFlood3010"
         result="flood"
         flood-color="rgb(0,0,0)"
         flood-opacity="0.5" />
      <feComposite
         id="feComposite3012"
         result="composite1"
         operator="in"
         in2="SourceGraphic"
         in="flood" />
      <feGaussianBlur
         id="feGaussianBlur3014"
         result="blur"
         stdDeviation="6"
         in="composite1" />
      <feOffset
         id="feOffset3016"
         result="offset"
         dy="0"
         dx="0" />
      <feComposite
         id="feComposite3018"
         result="composite2"
         operator="over"
         in2="offset"
         in="SourceGraphic" />
    </filter>
    <filter
       id="elevation-4"
       inkscape:label="Drop Shadow"
       style="color-interpolation-filters:sRGB">
      <feFlood
         id="feFlood890"
         result="flood"
         flood-color="rgb(0,0,0)"
         flood-opacity="0.5" />
      <feComposite
         id="feComposite892"
         result="composite1"
         operator="in"
         in2="SourceGraphic"
         in="flood" />
      <feGaussianBlur
         id="feGaussianBlur894"
         result="blur"
         stdDeviation="4"
         in="composite1" />
      <feOffset
         id="feOffset896"
         result="offset"
         dy="0"
         dx="0" />
      <feComposite
         id="feComposite898"
         result="composite2"
         operator="over"
         in2="offset"
         in="SourceGraphic" />
    </filter>
    <filter
       id="elevation-2"
       inkscape:label="Drop Shadow"
       style="color-interpolation-filters:sRGB">
      <feFlood
         id="feFlood1067"
         result="flood"
         flood-color="rgb(0,0,0)"
         flood-opacity="0.5" />
      <feComposite
         id="feComposite1069"
         result="composite1"
         operator="in"
         in2="SourceGraphic"
         in="flood" />
      <feGaussianBlur
         id="feGaussianBlur1071"
         result="blur"
         stdDeviation="2"
         in="composite1" />
      <feOffset
         id="feOffset1073"
         result="offset"
         dy="2.77556e-017"
         dx="1.38778e-016" />
      <feComposite
         id="feComposite1075"
         result="composite2"
         operator="over"
         in2="offset"
         in="SourceGraphic" />
    </filter>
  </defs>
  <g
     style="filter:url(#elevation-2)"
     id="group-background">
    <circle
       style="fill:#11767f;fill-opacity:1;stroke:none;stroke-width:7.0690074;stroke-linecap:round;stroke-linejoin:round;stroke-miterlimit:4;stroke-dasharray:none;stroke-opacity:1;paint-order:markers stroke fill"
       id="circle-large"
       cx="-181.01935"
       cy="-313.5347"
       r="221.81035"
       transform="rotate(165)" />
    <circle
       style="fill:#005373;fill-opacity:1;stroke:none;stroke-width:5.65520573;stroke-linecap:round;stroke-linejoin:round;stroke-miterlimit:4;stroke-dasharray:none;stroke-opacity:1;paint-order:markers stroke fill"
       id="circle-medium"
       cx="120.73561"
       cy="-349.70255"
       r="177.44827"
       transform="rotate(120)" />
    <circle
       style="fill:#102e58;fill-opacity:1;stroke:none;stroke-width:3.61933208;stroke-linecap:round;stroke-linejoin:round;stroke-miterlimit:4;stroke-dasharray:none;stroke-opacity:1;paint-order:markers stroke fill"
       id="circle-small"
       cx="371.69427"
       cy="-122.85976"
       r="113.56689"
       transform="rotate(75)" />
  </g>
  <g
     transform="matrix(1.0830583,0,0,1.0830583,-21.262935,-21.26292)"
     style="filter:url(#elevation-4)"
     id="group-horns">
    <path
       sodipodi:nodetypes="ccccccccccc"
       inkscape:connector-curvature="0"
       id="broken-arm"
       d="m -52.369294,170.32514 -82.024406,66.93944 80.805445,74.22541 61.6534893,-11.01318 6.8920607,42.54891 61.80713,44.7973 17.673112,-17.67311 -45.807123,-44.79731 2.44127,-68.54891 -71.653487,3.67985 z"
       style="fill:#ba293d;fill-opacity:1;stroke:none;stroke-width:10.66666603;stroke-linecap:round;stroke-linejoin:round;stroke-miterlimit:4;stroke-dasharray:none;stroke-opacity:1;paint-order:markers stroke fill"
       transform="matrix(-0.75,0,0,0.75,251.13425,67.125627)" />
    <path
       inkscape:connector-curvature="0"
       id="hand-horns"
       d="m 358.77533,38.553899 a 20.884601,20.884601 0 0 0 -13.56278,8.975831 l -46.20481,69.59795 -27.29811,41.11666 -14.52862,3.25457 c -11.28991,2.53064 -18.62699,13.26482 -16.3363,24.60589 l 8.26959,40.9422 c 2.29069,11.34104 21.70278,21.67786 21.70278,21.67786 30.99068,20.57523 44.43049,30.95086 69.46394,32.78211 29.78714,1.86374 58.3066,-12.30628 74.81425,-37.17075 l 23.10274,-34.79755 37.54402,-56.54528 a 20.884601,20.884601 0 0 0 -5.84741,-28.95015 20.884601,20.884601 0 0 0 -28.95016,5.84741 l -37.54401,56.54527 a 20.884601,20.884601 0 0 0 -5.84741,-28.95016 20.884601,20.884601 0 0 0 -28.95017,5.84741 20.884601,20.884601 0 0 0 -5.8474,-28.95015 20.884601,20.884601 0 0 0 -28.95016,5.84741 l 46.20481,-69.597955 a 20.884601,20.884601 0 0 0 -5.84741,-28.950159 20.884601,20.884601 0 0 0 -15.38738,-3.128417 z"
       style="fill:#ba293d;fill-opacity:1;stroke:none;stroke-width:5.22114992;stroke-linecap:round;stroke-linejoin:round;stroke-miterlimit:4;stroke-dasharray:none;stroke-opacity:1;paint-order:markers stroke fill" />
  </g>
  <g
     style="filter:url(#elevation-6)"
     id="group-band-name">
    <g
       style="filter:url(#elevation-2)"
       id="group-brakasssss">
      <path
         transform="matrix(-1.0744204,0.13651387,0.13651387,1.0744204,490.48419,-53.643576)"
         style="fill:#ffc233;fill-opacity:1;stroke:none;stroke-width:9.65743637;stroke-linecap:round;stroke-linejoin:round;stroke-miterlimit:4;stroke-dasharray:none;stroke-opacity:1;paint-order:markers stroke fill"
         d="M 460.97244,341.81345 61.593397,345.93285 64.742063,469.2908 464.12266,435.14544 Z"
         id="bg-brakasssss"
         inkscape:connector-curvature="0"
         sodipodi:nodetypes="ccccc" />
      <g
         style="font-style:normal;font-variant:normal;font-weight:normal;font-stretch:normal;font-size:72.9585px;line-height:1.42497px;font-family:'Fontdiner Swanky';-inkscape-font-specification:'Fontdiner Swanky';letter-spacing:0px;word-spacing:0px;fill:#418b80;fill-opacity:1;stroke:none;stroke-width:1.13998"
         id="text-brakasssss"
         transform="matrix(0.9338345,-0.04101529,0.08798587,1.0669891,0,0)"
         aria-label="Brakasssss'">
        <path
           id="path871"
           style="font-style:normal;font-variant:normal;font-weight:normal;font-stretch:normal;font-family:'Fontdiner Swanky';-inkscape-font-specification:'Fontdiner Swanky';fill:#418b80;fill-opacity:1;stroke-width:1.13998"
           d="m 81.350221,392.3015 q 0,2.3512 -1.353722,4.48866 -1.282474,2.13745 -3.277433,3.84742 -1.994959,1.70996 -4.346161,2.92119 -2.351201,1.21122 -4.34616,1.70996 1.994959,0.64124 3.989918,1.70997 1.994959,1.06872 3.562427,2.56494 1.638716,1.49622 2.564947,3.41993 0.99748,1.92371 0.99748,4.27492 0,2.84994 -1.781214,4.91615 -1.709965,2.0662 -4.559906,3.56242 -2.778693,1.49622 -6.269872,2.42245 -3.41993,0.99748 -6.911108,1.56747 -3.41993,0.64124 -6.483617,0.99748 -3.063687,0.35624 -4.987398,0.56999 l -29.069404,3.13493 16.244667,-9.61855 -3.348681,-38.9017 -15.175939,-8.97732 35.481773,0.71249 q 2.137456,0.0713 5.129894,0.35624 3.063687,0.285 6.269872,0.92623 3.206184,0.56999 6.34112,1.63872 3.206184,1.06873 5.699883,2.70744 2.564947,1.56747 4.061166,3.84742 1.567468,2.20871 1.567468,5.20115 z m -11.898506,0 q 0,-1.63872 -0.997479,-2.7787 -0.99748,-1.21122 -2.636196,-2.0662 -1.638717,-0.85499 -3.633676,-1.35373 -1.92371,-0.56998 -3.918669,-0.85498 -1.994959,-0.35624 -3.704924,-0.42749 -1.709965,-0.1425 -2.778693,-0.1425 -1.709965,0 -3.41993,0.1425 -1.709965,0.0713 -3.348681,0.21375 l 0.427491,14.96219 q 1.496219,0.1425 2.992438,0.28499 1.567468,0.0712 3.063688,0.0712 1.709965,0 4.702403,-0.28499 2.992439,-0.35624 5.913629,-1.21123 2.992438,-0.85498 5.129895,-2.42245 2.208704,-1.56747 2.208704,-4.13241 z m -3.847421,23.58326 q 0,-1.63871 -1.139976,-2.84994 -1.068728,-1.28247 -2.778693,-2.13745 -1.709965,-0.92624 -3.847421,-1.49622 -2.137457,-0.56999 -4.274913,-0.85499 -2.066207,-0.35624 -3.918669,-0.49874 -1.781214,-0.14249 -2.921191,-0.14249 h -0.213745 l 0.569988,16.95715 q 1.068728,-0.0712 2.849942,-0.28499 1.852462,-0.285 3.918669,-0.71249 2.066208,-0.49874 4.132416,-1.21123 2.137456,-0.78373 3.776172,-1.70996 1.709965,-0.99748 2.778693,-2.2087 1.068728,-1.28248 1.068728,-2.84995 z" />
        <path
           id="path873"
           style="font-style:normal;font-variant:normal;font-weight:normal;font-stretch:normal;font-family:'Fontdiner Swanky';-inkscape-font-specification:'Fontdiner Swanky';fill:#418b80;fill-opacity:1;stroke-width:1.13998"
           d="m 127.09178,390.66278 q 0,2.92119 -1.78121,4.8449 -1.78121,1.85246 -4.77365,1.85246 -2.20871,0 -3.41993,-0.78373 -1.21123,-0.85498 -2.06621,-1.85246 -0.78373,-1.06873 -1.63872,-1.85246 -0.78373,-0.85499 -2.27995,-0.85499 -2.6362,0 -4.20366,1.70997 -1.56747,1.63871 -2.35121,3.91867 -0.0712,0.14249 -0.14249,1.35372 0,1.21123 -0.0712,3.06369 -0.0713,1.85246 -0.1425,4.06116 -0.0713,2.20871 -0.1425,4.20367 -0.0712,1.99496 -0.14249,3.56242 -0.0712,1.49622 -0.0712,1.99496 l 17.31339,6.26988 -41.181652,4.20366 q 3.704924,-2.3512 7.409848,-4.63116 3.704924,-2.3512 7.409848,-4.63115 l -2.636196,-24.86574 -15.888424,-4.27491 28.713166,-6.26987 -0.1425,6.55486 q 2.99244,-2.06621 6.12737,-3.49118 3.20619,-1.49622 7.05361,-1.49622 1.28247,0 2.63619,0.285 1.35373,0.28499 2.56495,0.85498 1.21123,0.56999 2.13746,1.56747 0.92623,0.92623 1.35372,2.27995 0.35624,1.28247 0.35624,2.42245 z" />
        <path
           id="path875"
           style="font-style:normal;font-variant:normal;font-weight:normal;font-stretch:normal;font-family:'Fontdiner Swanky';-inkscape-font-specification:'Fontdiner Swanky';fill:#418b80;fill-opacity:1;stroke-width:1.13998"
           d="m 171.69336,426.14455 -22.58578,0.92623 0.49874,-3.98991 q -2.27996,0.28499 -4.55991,0.35624 -2.27995,0 -4.55991,0 -2.0662,0 -4.5599,-0.49874 -2.4937,-0.49874 -4.63116,-1.56747 -2.13745,-1.13998 -3.56242,-2.92119 -1.42498,-1.78121 -1.42498,-4.34616 0,-2.84994 1.35373,-4.8449 1.35372,-1.99496 3.41993,-3.20618 2.13745,-1.21123 4.7024,-1.78122 2.56495,-0.56999 4.9874,-0.56999 2.99244,0 5.84238,0.285 2.84994,0.28499 5.77113,0.49874 0.1425,-0.92623 0.21375,-1.85246 0.0712,-0.99748 0.0712,-1.99496 0,-1.92371 -0.35624,-3.77618 -0.28499,-1.85246 -1.13998,-3.27743 -0.78373,-1.49622 -2.27995,-2.3512 -1.42497,-0.85498 -3.70492,-0.85498 -2.13746,0 -3.91867,0.71248 -1.70997,0.64124 -3.06369,2.27996 0.99748,0.78373 1.35372,1.78121 0.35625,0.92623 0.35625,2.13746 v 0.42749 q -1.06873,4.98739 -6.26988,4.98739 -2.3512,0 -3.84742,-1.63871 -1.49622,-1.70997 -1.49622,-3.98992 0,-3.13494 1.78122,-5.41489 1.78121,-2.27995 4.34616,-3.77617 2.63619,-1.49622 5.62863,-2.20871 3.06369,-0.71248 5.62864,-0.71248 8.19358,0 12.75349,3.77617 4.63115,3.77617 4.63115,12.326 0,0.92623 -0.0713,1.85246 0,0.92623 -0.0712,1.85246 l -1.70996,16.38717 q 2.70744,1.21122 5.27239,2.49369 2.56495,1.28248 5.20114,2.4937 z m -20.09208,-16.8859 q -1.85247,-0.21375 -3.70493,-0.42749 -1.85246,-0.285 -3.70492,-0.285 -1.21123,0 -2.42245,0.285 -1.13998,0.21374 -2.13746,0.78373 -0.92623,0.56999 -1.49622,1.56747 -0.56999,0.92623 -0.56999,2.3512 0,1.06873 0.49874,1.92371 0.49874,0.78374 1.28248,1.35372 0.85498,0.56999 1.78121,0.85499 0.99748,0.28499 1.92371,0.28499 1.85246,0 3.70493,-0.21374 1.92371,-0.21375 3.70492,-0.4275 z" />
        <path
           id="path877"
           style="font-style:normal;font-variant:normal;font-weight:normal;font-stretch:normal;font-family:'Fontdiner Swanky';-inkscape-font-specification:'Fontdiner Swanky';fill:#418b80;fill-opacity:1;stroke-width:1.13998"
           d="m 229.40469,425.57456 -34.41305,7.3386 11.39977,-8.54982 -14.46346,-22.1583 -5.62863,3.77618 -0.28499,13.03848 14.2497,5.69988 -37.97547,1.49622 14.03596,-7.12485 -2.99243,-46.2403 -16.81466,-3.91867 30.92187,-2.35121 -0.85499,31.7056 15.10469,-12.82473 -11.25726,-6.69737 h 36.62174 l -16.38716,7.69485 -11.82726,8.97731 16.03092,26.43321 z" />
        <path
           id="path879"
           style="font-style:normal;font-variant:normal;font-weight:normal;font-stretch:normal;font-family:'Fontdiner Swanky';-inkscape-font-specification:'Fontdiner Swanky';fill:#418b80;fill-opacity:1;stroke-width:1.13998"
           d="m 263.14087,426.14455 -22.58578,0.92623 0.49874,-3.98991 q -2.27996,0.28499 -4.55991,0.35624 -2.27995,0 -4.55991,0 -2.0662,0 -4.5599,-0.49874 -2.4937,-0.49874 -4.63116,-1.56747 -2.13745,-1.13998 -3.56242,-2.92119 -1.42498,-1.78121 -1.42498,-4.34616 0,-2.84994 1.35373,-4.8449 1.35372,-1.99496 3.41993,-3.20618 2.13745,-1.21123 4.7024,-1.78122 2.56495,-0.56999 4.9874,-0.56999 2.99244,0 5.84238,0.285 2.84994,0.28499 5.77113,0.49874 0.1425,-0.92623 0.21375,-1.85246 0.0712,-0.99748 0.0712,-1.99496 0,-1.92371 -0.35624,-3.77618 -0.28499,-1.85246 -1.13998,-3.27743 -0.78373,-1.49622 -2.27995,-2.3512 -1.42497,-0.85498 -3.70492,-0.85498 -2.13746,0 -3.91867,0.71248 -1.70997,0.64124 -3.06369,2.27996 0.99748,0.78373 1.35372,1.78121 0.35625,0.92623 0.35625,2.13746 v 0.42749 q -1.06873,4.98739 -6.26988,4.98739 -2.3512,0 -3.84742,-1.63871 -1.49622,-1.70997 -1.49622,-3.98992 0,-3.13494 1.78122,-5.41489 1.78121,-2.27995 4.34616,-3.77617 2.63619,-1.49622 5.62863,-2.20871 3.06369,-0.71248 5.62864,-0.71248 8.19358,0 12.75349,3.77617 4.63115,3.77617 4.63115,12.326 0,0.92623 -0.0712,1.85246 0,0.92623 -0.0713,1.85246 l -1.70996,16.38717 q 2.70744,1.21122 5.27239,2.49369 2.56495,1.28248 5.20114,2.4937 z m -20.09208,-16.8859 q -1.85247,-0.21375 -3.70493,-0.42749 -1.85246,-0.285 -3.70492,-0.285 -1.21123,0 -2.42245,0.285 -1.13998,0.21374 -2.13746,0.78373 -0.92623,0.56999 -1.49622,1.56747 -0.56999,0.92623 -0.56999,2.3512 0,1.06873 0.49874,1.92371 0.49874,0.78374 1.28248,1.35372 0.85498,0.56999 1.78121,0.85499 0.99748,0.28499 1.92371,0.28499 1.85246,0 3.70492,-0.21374 1.92372,-0.21375 3.70493,-0.4275 z" />
        <path
           id="path881"
           style="font-style:normal;font-variant:normal;font-weight:normal;font-stretch:normal;font-family:'Fontdiner Swanky';-inkscape-font-specification:'Fontdiner Swanky';fill:#418b80;fill-opacity:1;stroke-width:1.13998"
           d="m 297.01955,413.39106 q 0,3.56243 -1.63872,5.84238 -1.63872,2.27996 -4.13241,3.63368 -2.4937,1.28247 -5.55739,1.85246 -3.06369,0.49874 -5.91363,0.49874 -1.63872,0 -3.63367,-0.21374 -1.92371,-0.285 -3.84743,-0.78374 -1.92371,-0.49874 -3.77617,-1.21122 -1.78121,-0.71249 -3.20618,-1.70997 l -5.77113,6.76861 2.2087,-21.80205 q 1.21123,2.6362 3.06369,4.9874 1.92371,2.3512 4.34616,4.13241 2.42245,1.78122 5.20114,2.84995 2.7787,0.99747 5.77113,0.99747 0.78374,0 1.78122,-0.0712 1.06873,-0.1425 1.99496,-0.49874 0.99748,-0.35625 1.63871,-0.99748 0.64124,-0.64124 0.64124,-1.70997 0,-1.21122 -1.28247,-2.2087 -1.28248,-1.06873 -2.99244,-1.78122 -1.70997,-0.78373 -3.41993,-1.28247 -1.70997,-0.56999 -2.56495,-0.85498 -2.42245,-0.71249 -5.34364,-1.92371 -2.84994,-1.28248 -5.34364,-2.99244 -2.42245,-1.78121 -4.06117,-4.13242 -1.63871,-2.42245 -1.63871,-5.55738 0,-2.99244 1.42497,-5.34364 1.49622,-2.3512 3.77617,-3.91867 2.27995,-1.63872 5.05865,-2.42245 2.84994,-0.85499 5.55738,-0.85499 4.27491,0 8.05109,1.56747 3.84742,1.49622 6.98235,4.34616 l 4.41741,-8.54982 -0.92623,22.51454 q -1.28247,-2.42245 -3.20618,-4.8449 -1.92371,-2.4937 -4.27491,-4.48866 -2.35121,-1.99496 -5.05865,-3.20619 -2.70745,-1.21122 -5.62864,-1.21122 -0.85498,0 -1.99495,0.21374 -1.06873,0.1425 -2.06621,0.56999 -0.92623,0.42749 -1.63872,1.21123 -0.64124,0.71248 -0.64124,1.85246 0,1.35372 0.99748,2.3512 1.06873,0.99748 2.4937,1.78122 1.49622,0.71248 2.99244,1.28247 1.56747,0.49874 2.56495,0.78373 2.56495,0.85499 5.77113,1.99496 3.20618,1.13998 6.05613,2.7787 2.84994,1.63871 4.77365,4.06116 1.99496,2.3512 1.99496,5.69988 z" />
        <path
           id="path883"
           style="font-style:normal;font-variant:normal;font-weight:normal;font-stretch:normal;font-family:'Fontdiner Swanky';-inkscape-font-specification:'Fontdiner Swanky';fill:#418b80;fill-opacity:1;stroke-width:1.13998"
           d="m 335.92127,413.39106 q 0,3.56243 -1.63872,5.84238 -1.63872,2.27996 -4.13242,3.63368 -2.49369,1.28247 -5.55738,1.85246 -3.06369,0.49874 -5.91363,0.49874 -1.63872,0 -3.63368,-0.21374 -1.92371,-0.285 -3.84742,-0.78374 -1.92371,-0.49874 -3.77617,-1.21122 -1.78121,-0.71249 -3.20618,-1.70997 l -5.77114,6.76861 2.20871,-21.80205 q 1.21122,2.6362 3.06369,4.9874 1.92371,2.3512 4.34616,4.13241 2.42245,1.78122 5.20114,2.84995 2.77869,0.99747 5.77113,0.99747 0.78374,0 1.78122,-0.0712 1.06872,-0.1425 1.99495,-0.49874 0.99748,-0.35625 1.63872,-0.99748 0.64124,-0.64124 0.64124,-1.70997 0,-1.21122 -1.28248,-2.2087 -1.28247,-1.06873 -2.99243,-1.78122 -1.70997,-0.78373 -3.41993,-1.28247 -1.70997,-0.56999 -2.56495,-0.85498 -2.42245,-0.71249 -5.34364,-1.92371 -2.84994,-1.28248 -5.34364,-2.99244 -2.42245,-1.78121 -4.06117,-4.13242 -1.63872,-2.42245 -1.63872,-5.55738 0,-2.99244 1.42498,-5.34364 1.49621,-2.3512 3.77617,-3.91867 2.27995,-1.63872 5.05864,-2.42245 2.84995,-0.85499 5.55739,-0.85499 4.27491,0 8.05108,1.56747 3.84743,1.49622 6.98236,4.34616 l 4.41741,-8.54982 -0.92623,22.51454 q -1.28247,-2.42245 -3.20618,-4.8449 -1.92371,-2.4937 -4.27492,-4.48866 -2.3512,-1.99496 -5.05864,-3.20619 -2.70745,-1.21122 -5.62864,-1.21122 -0.85498,0 -1.99496,0.21374 -1.06872,0.1425 -2.0662,0.56999 -0.92623,0.42749 -1.63872,1.21123 -0.64124,0.71248 -0.64124,1.85246 0,1.35372 0.99748,2.3512 1.06873,0.99748 2.4937,1.78122 1.49622,0.71248 2.99244,1.28247 1.56747,0.49874 2.56495,0.78373 2.56494,0.85499 5.77113,1.99496 3.20618,1.13998 6.05612,2.7787 2.84995,1.63871 4.77366,4.06116 1.99496,2.3512 1.99496,5.69988 z" />
        <path
           id="path885"
           style="font-style:normal;font-variant:normal;font-weight:normal;font-stretch:normal;font-family:'Fontdiner Swanky';-inkscape-font-specification:'Fontdiner Swanky';fill:#418b80;fill-opacity:1;stroke-width:1.13998"
           d="m 374.82294,413.39106 q 0,3.56243 -1.63872,5.84238 -1.63871,2.27996 -4.13241,3.63368 -2.4937,1.28247 -5.55739,1.85246 -3.06369,0.49874 -5.91363,0.49874 -1.63871,0 -3.63367,-0.21374 -1.92371,-0.285 -3.84742,-0.78374 -1.92372,-0.49874 -3.77618,-1.21122 -1.78121,-0.71249 -3.20618,-1.70997 l -5.77113,6.76861 2.2087,-21.80205 q 1.21123,2.6362 3.06369,4.9874 1.92371,2.3512 4.34616,4.13241 2.42245,1.78122 5.20114,2.84995 2.7787,0.99747 5.77113,0.99747 0.78374,0 1.78122,-0.0712 1.06873,-0.1425 1.99496,-0.49874 0.99748,-0.35625 1.63871,-0.99748 0.64124,-0.64124 0.64124,-1.70997 0,-1.21122 -1.28247,-2.2087 -1.28248,-1.06873 -2.99244,-1.78122 -1.70997,-0.78373 -3.41993,-1.28247 -1.70997,-0.56999 -2.56495,-0.85498 -2.42245,-0.71249 -5.34364,-1.92371 -2.84994,-1.28248 -5.34364,-2.99244 -2.42245,-1.78121 -4.06117,-4.13242 -1.63871,-2.42245 -1.63871,-5.55738 0,-2.99244 1.42497,-5.34364 1.49622,-2.3512 3.77617,-3.91867 2.27995,-1.63872 5.05865,-2.42245 2.84994,-0.85499 5.55738,-0.85499 4.27491,0 8.05109,1.56747 3.84742,1.49622 6.98235,4.34616 l 4.41741,-8.54982 -0.92623,22.51454 q -1.28247,-2.42245 -3.20618,-4.8449 -1.92371,-2.4937 -4.27491,-4.48866 -2.35121,-1.99496 -5.05865,-3.20619 -2.70744,-1.21122 -5.62863,-1.21122 -0.85499,0 -1.99496,0.21374 -1.06873,0.1425 -2.06621,0.56999 -0.92623,0.42749 -1.63872,1.21123 -0.64123,0.71248 -0.64123,1.85246 0,1.35372 0.99747,2.3512 1.06873,0.99748 2.4937,1.78122 1.49622,0.71248 2.99244,1.28247 1.56747,0.49874 2.56495,0.78373 2.56495,0.85499 5.77113,1.99496 3.20619,1.13998 6.05613,2.7787 2.84994,1.63871 4.77365,4.06116 1.99496,2.3512 1.99496,5.69988 z" />
        <path
           id="path887"
           style="font-style:normal;font-variant:normal;font-weight:normal;font-stretch:normal;font-family:'Fontdiner Swanky';-inkscape-font-specification:'Fontdiner Swanky';fill:#418b80;fill-opacity:1;stroke-width:1.13998"
           d="m 413.72467,413.39106 q 0,3.56243 -1.63871,5.84238 -1.63872,2.27996 -4.13242,3.63368 -2.4937,1.28247 -5.55739,1.85246 -3.06368,0.49874 -5.91362,0.49874 -1.63872,0 -3.63368,-0.21374 -1.92371,-0.285 -3.84742,-0.78374 -1.92371,-0.49874 -3.77617,-1.21122 -1.78122,-0.71249 -3.20619,-1.70997 l -5.77113,6.76861 2.2087,-21.80205 q 1.21123,2.6362 3.06369,4.9874 1.92371,2.3512 4.34616,4.13241 2.42245,1.78122 5.20115,2.84995 2.77869,0.99747 5.77113,0.99747 0.78373,0 1.78121,-0.0712 1.06873,-0.1425 1.99496,-0.49874 0.99748,-0.35625 1.63872,-0.99748 0.64123,-0.64124 0.64123,-1.70997 0,-1.21122 -1.28247,-2.2087 -1.28247,-1.06873 -2.99244,-1.78122 -1.70996,-0.78373 -3.41993,-1.28247 -1.70996,-0.56999 -2.56495,-0.85498 -2.42245,-0.71249 -5.34364,-1.92371 -2.84994,-1.28248 -5.34364,-2.99244 -2.42245,-1.78121 -4.06116,-4.13242 -1.63872,-2.42245 -1.63872,-5.55738 0,-2.99244 1.42497,-5.34364 1.49622,-2.3512 3.77617,-3.91867 2.27996,-1.63872 5.05865,-2.42245 2.84994,-0.85499 5.55739,-0.85499 4.27491,0 8.05108,1.56747 3.84742,1.49622 6.98236,4.34616 l 4.41741,-8.54982 -0.92623,22.51454 q -1.28248,-2.42245 -3.20619,-4.8449 -1.92371,-2.4937 -4.27491,-4.48866 -2.3512,-1.99496 -5.05865,-3.20619 -2.70744,-1.21122 -5.62863,-1.21122 -0.85498,0 -1.99496,0.21374 -1.06873,0.1425 -2.06621,0.56999 -0.92623,0.42749 -1.63871,1.21123 -0.64124,0.71248 -0.64124,1.85246 0,1.35372 0.99748,2.3512 1.06873,0.99748 2.4937,1.78122 1.49622,0.71248 2.99244,1.28247 1.56746,0.49874 2.56494,0.78373 2.56495,0.85499 5.77113,1.99496 3.20619,1.13998 6.05613,2.7787 2.84994,1.63871 4.77365,4.06116 1.99496,2.3512 1.99496,5.69988 z" />
        <path
           id="path889"
           style="font-style:normal;font-variant:normal;font-weight:normal;font-stretch:normal;font-family:'Fontdiner Swanky';-inkscape-font-specification:'Fontdiner Swanky';fill:#418b80;fill-opacity:1;stroke-width:1.13998"
           d="m 452.62634,413.39106 q 0,3.56243 -1.63871,5.84238 -1.63872,2.27996 -4.13242,3.63368 -2.4937,1.28247 -5.55738,1.85246 -3.06369,0.49874 -5.91363,0.49874 -1.63872,0 -3.63368,-0.21374 -1.92371,-0.285 -3.84742,-0.78374 -1.92371,-0.49874 -3.77617,-1.21122 -1.78122,-0.71249 -3.20619,-1.70997 l -5.77113,6.76861 2.20871,-21.80205 q 1.21122,2.6362 3.06368,4.9874 1.92371,2.3512 4.34617,4.13241 2.42245,1.78122 5.20114,2.84995 2.77869,0.99747 5.77113,0.99747 0.78373,0 1.78121,-0.0712 1.06873,-0.1425 1.99496,-0.49874 0.99748,-0.35625 1.63872,-0.99748 0.64124,-0.64124 0.64124,-1.70997 0,-1.21122 -1.28248,-2.2087 -1.28247,-1.06873 -2.99244,-1.78122 -1.70996,-0.78373 -3.41993,-1.28247 -1.70996,-0.56999 -2.56494,-0.85498 -2.42245,-0.71249 -5.34364,-1.92371 -2.84995,-1.28248 -5.34364,-2.99244 -2.42245,-1.78121 -4.06117,-4.13242 -1.63872,-2.42245 -1.63872,-5.55738 0,-2.99244 1.42497,-5.34364 1.49622,-2.3512 3.77618,-3.91867 2.27995,-1.63872 5.05864,-2.42245 2.84994,-0.85499 5.55739,-0.85499 4.27491,0 8.05108,1.56747 3.84742,1.49622 6.98236,4.34616 l 4.41741,-8.54982 -0.92623,22.51454 q -1.28248,-2.42245 -3.20619,-4.8449 -1.92371,-2.4937 -4.27491,-4.48866 -2.3512,-1.99496 -5.05864,-3.20619 -2.70745,-1.21122 -5.62864,-1.21122 -0.85498,0 -1.99496,0.21374 -1.06873,0.1425 -2.06621,0.56999 -0.92623,0.42749 -1.63871,1.21123 -0.64124,0.71248 -0.64124,1.85246 0,1.35372 0.99748,2.3512 1.06873,0.99748 2.4937,1.78122 1.49622,0.71248 2.99244,1.28247 1.56747,0.49874 2.56495,0.78373 2.56494,0.85499 5.77113,1.99496 3.20618,1.13998 6.05612,2.7787 2.84994,1.63871 4.77365,4.06116 1.99496,2.3512 1.99496,5.69988 z" />
        <path
           id="path891"
           style="font-style:normal;font-variant:normal;font-weight:normal;font-stretch:normal;font-family:'Fontdiner Swanky';-inkscape-font-specification:'Fontdiner Swanky';fill:#418b80;fill-opacity:1;stroke-width:1.13998"
           d="m 464.88112,376.69807 -1.78121,19.2371 -8.12233,-0.14249 -1.63872,-19.09461 z" />
      </g>
    </g>
    <g
       id="group-les"
       style="filter:url(#elevation-4)">
      <path
         transform="matrix(0.75678795,0.07433421,-0.06916675,0.91196859,36.493855,27.497315)"
         style="fill:#418b80;fill-opacity:1;stroke:none;stroke-width:4.61568165;stroke-linecap:round;stroke-linejoin:round;stroke-miterlimit:4;stroke-dasharray:none;stroke-opacity:1;paint-order:markers stroke fill"
         d="m 99.998298,306.0127 128.964102,-0.97272 6.78553,62.87024 -134.78639,17.38815 z"
         id="bg-les"
         inkscape:connector-curvature="0"
         sodipodi:nodetypes="ccccc" />
      <g
         style="font-style:normal;font-variant:normal;font-weight:normal;font-stretch:normal;font-size:48.0315px;line-height:0.938116px;font-family:'Dressed Book';-inkscape-font-specification:'Dressed Book, ';letter-spacing:0px;word-spacing:0px;fill:#ffc233;fill-opacity:1;stroke:none;stroke-width:0.750493"
         id="text-les"
         transform="matrix(0.96716615,0.07857108,-0.16574571,1.0204836,0,0)"
         aria-label="Les">
        <path
           id="path864"
           style="font-style:normal;font-variant:normal;font-weight:normal;font-stretch:normal;font-family:'Fontdiner Swanky';-inkscape-font-specification:'Fontdiner Swanky';fill:#ffc233;fill-opacity:1;stroke-width:0.750493"
           d="m 190.67367,341.75765 -36.25816,1.5948 11.16358,-5.39417 -1.45408,-27.53368 -11.58573,-4.40914 31.47377,-0.0938 -10.64761,4.54986 -0.46905,27.39296 11.445,0.37525 6.33228,-16.2763 z" />
        <path
           id="path866"
           style="font-style:normal;font-variant:normal;font-weight:normal;font-stretch:normal;font-family:'Fontdiner Swanky';-inkscape-font-specification:'Fontdiner Swanky';fill:#ffc233;fill-opacity:1;stroke-width:0.750493"
           d="m 219.14547,335.14394 q 0,0.32834 -0.0469,0.65668 0,0.32834 0,0.65668 l -19.09064,0.37524 q 0.60977,2.76744 2.76744,4.08081 2.15766,1.31336 4.8782,1.31336 1.31336,0 2.67362,-0.18763 1.36027,-0.18762 2.67363,-0.60977 1.31336,-0.42215 2.48601,-1.07883 1.17264,-0.70359 2.11076,-1.6417 -0.51597,1.97004 -1.73552,3.47102 -1.21955,1.50099 -2.90815,2.48601 -1.6417,0.98502 -3.61175,1.45408 -1.92313,0.51596 -3.84627,0.51596 -2.62672,0 -5.01892,-0.93812 -2.34528,-0.93811 -4.1277,-2.57981 -1.73552,-1.6417 -2.76744,-3.94009 -1.03193,-2.29838 -1.03193,-5.01891 0,-2.86126 1.17264,-5.20654 1.17265,-2.34529 3.09578,-3.98699 1.92314,-1.68861 4.45605,-2.57982 2.53291,-0.89121 5.30035,-0.89121 2.90816,0 5.20654,1.07883 2.34529,1.07884 3.98699,2.95507 1.6417,1.87623 2.48601,4.36223 0.89121,2.4391 0.89121,5.25345 z m -7.17658,-2.3922 q -0.0938,-1.26645 -0.51597,-2.4391 -0.42215,-1.17264 -1.17264,-2.06385 -0.75049,-0.89121 -1.82933,-1.40717 -1.03192,-0.56287 -2.4391,-0.56287 -1.40717,0 -2.4391,0.51596 -1.03192,0.51596 -1.73551,1.40717 -0.70359,0.84431 -1.17264,2.01695 -0.42215,1.12574 -0.65668,2.34529 z" />
        <path
           id="path868"
           style="font-style:normal;font-variant:normal;font-weight:normal;font-stretch:normal;font-family:'Fontdiner Swanky';-inkscape-font-specification:'Fontdiner Swanky';fill:#ffc233;fill-opacity:1;stroke-width:0.750493"
           d="m 244.80292,335.75371 q 0,2.34529 -1.07883,3.84627 -1.07883,1.50099 -2.72053,2.3922 -1.64171,0.8443 -3.65865,1.21955 -2.01695,0.32834 -3.89318,0.32834 -1.07884,0 -2.3922,-0.14072 -1.26645,-0.18762 -2.53291,-0.51596 -1.26645,-0.32834 -2.486,-0.7974 -1.17265,-0.46906 -2.11076,-1.12574 l -3.79937,4.45605 1.45408,-14.35316 q 0.7974,1.73551 2.01695,3.2834 1.26645,1.54789 2.86125,2.72053 1.59479,1.17265 3.42412,1.87623 1.82932,0.65668 3.79937,0.65668 0.51596,0 1.17264,-0.0469 0.70359,-0.0938 1.31336,-0.32834 0.65668,-0.23453 1.07883,-0.65668 0.42216,-0.42215 0.42216,-1.12574 0,-0.7974 -0.84431,-1.45408 -0.8443,-0.70359 -1.97004,-1.17264 -1.12574,-0.51597 -2.25148,-0.84431 -1.12573,-0.37524 -1.6886,-0.56287 -1.5948,-0.46905 -3.51794,-1.26645 -1.87623,-0.84431 -3.51793,-1.97004 -1.59479,-1.17265 -2.67363,-2.72054 -1.07883,-1.59479 -1.07883,-3.65865 0,-1.97004 0.93812,-3.51793 0.98502,-1.54789 2.486,-2.57982 1.50099,-1.07883 3.33031,-1.59479 1.87623,-0.56287 3.65865,-0.56287 2.81435,0 5.30035,1.03192 2.53291,0.98503 4.59677,2.86126 l 2.90815,-5.6287 -0.60977,14.82223 q -0.84431,-1.5948 -2.11076,-3.1896 -1.26646,-1.6417 -2.81435,-2.95506 -1.54789,-1.31336 -3.33031,-2.11076 -1.78241,-0.7974 -3.70555,-0.7974 -0.56287,0 -1.31336,0.14072 -0.70359,0.0938 -1.36027,0.37525 -0.60977,0.28143 -1.07883,0.7974 -0.42215,0.46905 -0.42215,1.21954 0,0.89121 0.65668,1.5479 0.70358,0.65668 1.6417,1.17264 0.98502,0.46906 1.97004,0.8443 1.03193,0.32834 1.68861,0.51597 1.68861,0.56287 3.79936,1.31336 2.11076,0.75049 3.98699,1.82932 1.87624,1.07884 3.14269,2.67363 1.31336,1.54789 1.31336,3.75246 z" />
      </g>
    </g>
  </g>
</svg>
