<?xml version="1.0" encoding="UTF-8" standalone="no"?>
<svg
   xmlns="http://www.w3.org/2000/svg"
   version="1.1"
   width="512"
   height="512"
   viewBox="0 0 512 512">
  <defs>
    <filter
       id="elevation-6"
       style="color-interpolation-filters:sRGB">
      <feFlood
         result="flood"
         flood-color="rgb(0,0,0)"
         flood-opacity="0.5" />
      <feComposite
         result="composite1"
         operator="in"
         in2="SourceGraphic"
         in="flood" />
      <feGaussianBlur
         result="blur"
         stdDeviation="6"
         in="composite1" />
      <feOffset
         result="offset"
         dy="0"
         dx="0" />
      <feComposite
         result="composite2"
         operator="over"
         in2="offset"
         in="SourceGraphic" />
    </filter>
    <filter
       id="elevation-4"
       style="color-interpolation-filters:sRGB">
      <feFlood
         result="flood"
         flood-color="rgb(0,0,0)"
         flood-opacity="0.5" />
      <feComposite
         result="composite1"
         operator="in"
         in2="SourceGraphic"
         in="flood" />
      <feGaussianBlur
         result="blur"
         stdDeviation="4"
         in="composite1" />
      <feOffset
         result="offset"
         dy="0"
         dx="0" />
      <feComposite
         result="composite2"
         operator="over"
         in2="offset"
         in="SourceGraphic" />
    </filter>
    <filter
       id="elevation-2"
       style="color-interpolation-filters:sRGB">
      <feFlood
         result="flood"
         flood-color="rgb(0,0,0)"
         flood-opacity="0.5" />
      <feComposite
         result="composite1"
         operator="in"
         in2="SourceGraphic"
         in="flood" />
      <feGaussianBlur
         result="blur"
         stdDeviation="2"
         in="composite1" />
      <feOffset
         result="offset"
         dy="2.77556e-017"
         dx="1.38778e-016" />
      <feComposite
         result="composite2"
         operator="over"
         in2="offset"
         in="SourceGraphic" />
    </filter>
  </defs>
  <g id="group-background" style="filter:url(#elevation-2)">
    <circle
       style="fill:#11767f;fill-opacity:1;stroke:none;stroke-width:7.0690074;stroke-linecap:round;stroke-linejoin:round;stroke-miterlimit:4;stroke-dasharray:none;stroke-opacity:1;paint-order:markers stroke fill"
       id="circle-large"
       cx="-181.01935"
       cy="-313.5347"
       r="221.81035"
       transform="rotate(165)" />
    <circle
       style="fill:#005373;fill-opacity:1;stroke:none;stroke-width:5.65520573;stroke-linecap:round;stroke-linejoin:round;stroke-miterlimit:4;stroke-dasharray:none;stroke-opacity:1;paint-order:markers stroke fill"
       id="circle-medium"
       cx="120.73561"
       cy="-349.70255"
       r="177.44827"
       transform="rotate(120)" />
    <circle
       style="fill:#102e58;fill-opacity:1;stroke:none;stroke-width:3.61933208;stroke-linecap:round;stroke-linejoin:round;stroke-miterlimit:4;stroke-dasharray:none;stroke-opacity:1;paint-order:markers stroke fill"
       id="circle-small"
       cx="371.69427"
       cy="-122.85976"
       r="113.56689"
       transform="rotate(75)" />
  </g>
  <g
     transform="matrix(1.0830583,0,0,1.0830583,-21.262935,-21.26292)"
     style="filter:url(#elevation-4)"
     id="group-horns">
    <path
       id="broken-arm"
       d="m -52.369294,170.32514 -82.024406,66.93944 80.805445,74.22541 61.6534893,-11.01318 6.8920607,42.54891 61.80713,44.7973 17.673112,-17.67311 -45.807123,-44.79731 2.44127,-68.54891 -71.653487,3.67985 z"
       style="fill:#ba293d;fill-opacity:1;stroke:none;stroke-width:10.66666603;stroke-linecap:round;stroke-linejoin:round;stroke-miterlimit:4;stroke-dasharray:none;stroke-opacity:1;paint-order:markers stroke fill"
       transform="matrix(-0.75,0,0,0.75,251.13425,67.125627)" />
    <path
       id="hand-horns"
       d="m 358.77533,38.553899 a 20.884601,20.884601 0 0 0 -13.56278,8.975831 l -46.20481,69.59795 -27.29811,41.11666 -14.52862,3.25457 c -11.28991,2.53064 -18.62699,13.26482 -16.3363,24.60589 l 8.26959,40.9422 c 2.29069,11.34104 21.70278,21.67786 21.70278,21.67786 30.99068,20.57523 44.43049,30.95086 69.46394,32.78211 29.78714,1.86374 58.3066,-12.30628 74.81425,-37.17075 l 23.10274,-34.79755 37.54402,-56.54528 a 20.884601,20.884601 0 0 0 -5.84741,-28.95015 20.884601,20.884601 0 0 0 -28.95016,5.84741 l -37.54401,56.54527 a 20.884601,20.884601 0 0 0 -5.84741,-28.95016 20.884601,20.884601 0 0 0 -28.95017,5.84741 20.884601,20.884601 0 0 0 -5.8474,-28.95015 20.884601,20.884601 0 0 0 -28.95016,5.84741 l 46.20481,-69.597955 a 20.884601,20.884601 0 0 0 -5.84741,-28.950159 20.884601,20.884601 0 0 0 -15.38738,-3.128417 z"
       style="fill:#ba293d;fill-opacity:1;stroke:none;stroke-width:5.22114992;stroke-linecap:round;stroke-linejoin:round;stroke-miterlimit:4;stroke-dasharray:none;stroke-opacity:1;paint-order:markers stroke fill" />
  </g>
  <g
     style="filter:url(#elevation-6)"
     id="group-band-name">
    <g
       style="filter:url(#elevation-2)"
       id="group-brakasssss">
      <path
         transform="matrix(-1.0744204,0.13651387,0.13651387,1.0744204,490.48419,-53.643576)"
         style="fill:#ffc233;fill-opacity:1;stroke:none;stroke-width:9.65743637;stroke-linecap:round;stroke-linejoin:round;stroke-miterlimit:4;stroke-dasharray:none;stroke-opacity:1;paint-order:markers stroke fill"
         d="M 460.97244,341.81345 61.593397,345.93285 64.742063,469.2908 464.12266,435.14544 Z"
         id="bg-brakasssss" />
      <text
         transform="matrix(0.9338345,-0.04101529,0.08798587,1.0669891,0,0)"
         id="text-brakasssss"
         y="425.43207"
         x="24.85013"
         style="font-style:normal;font-variant:normal;font-weight:normal;font-stretch:normal;font-size:72.95845032px;line-height:1.42496967px;font-family:'Fontdiner Swanky';-inkscape-font-specification:'Fontdiner Swanky';letter-spacing:0px;word-spacing:0px;fill:#418b80;fill-opacity:1;stroke:none;stroke-width:1.13997579"
         xml:space="preserve"><tspan
           style="font-style:normal;font-variant:normal;font-weight:normal;font-stretch:normal;font-family:'Fontdiner Swanky';-inkscape-font-specification:'Fontdiner Swanky';fill:#418b80;fill-opacity:1;stroke-width:1.13997579"
           y="425.43207"
           x="24.85013"
           id="tspan886">Brakasssss'</tspan></text>
    </g>
    <g
       id="group-les"
       style="filter:url(#elevation-4)">
      <path
         transform="matrix(0.75678795,0.07433421,-0.06916675,0.91196859,36.493855,27.497315)"
         style="fill:#418b80;fill-opacity:1;stroke:none;stroke-width:4.61568165;stroke-linecap:round;stroke-linejoin:round;stroke-miterlimit:4;stroke-dasharray:none;stroke-opacity:1;paint-order:markers stroke fill"
         d="m 99.998298,306.0127 128.964102,-0.97272 6.78553,62.87024 -134.78639,17.38815 z"
         id="bg-les" />
      <text
         transform="matrix(0.96716615,0.07857108,-0.16574571,1.0204836,0,0)"
         id="text-les"
         y="343.68079"
         x="156.85461"
         style="font-style:normal;font-variant:normal;font-weight:normal;font-stretch:normal;font-size:48.03152847px;line-height:0.93811578px;font-family:'Dressed Book';-inkscape-font-specification:'Dressed Book, ';letter-spacing:0px;word-spacing:0px;fill:#ffc233;fill-opacity:1;stroke:none;stroke-width:0.75049263"
         xml:space="preserve"><tspan
           style="font-style:normal;font-variant:normal;font-weight:normal;font-stretch:normal;font-family:'Fontdiner Swanky';-inkscape-font-specification:'Fontdiner Swanky';fill:#ffc233;fill-opacity:1;stroke-width:0.75049263"
           id="tspan882"
           y="343.68079"
           x="156.85461">Les</tspan></text>
    </g>
  </g>
</svg>
