<?xml version="1.0" encoding="UTF-8" standalone="no"?>
<svg
   xmlns:dc="http://purl.org/dc/elements/1.1/"
   xmlns:cc="http://creativecommons.org/ns#"
   xmlns:rdf="http://www.w3.org/1999/02/22-rdf-syntax-ns#"
   xmlns:svg="http://www.w3.org/2000/svg"
   xmlns="http://www.w3.org/2000/svg"
   xmlns:sodipodi="http://sodipodi.sourceforge.net/DTD/sodipodi-0.dtd"
   xmlns:inkscape="http://www.inkscape.org/namespaces/inkscape"
   sodipodi:docname="logo.inkscape.svg"
   inkscape:version="1.0 (4035a4fb49, 2020-05-01)"
   id="svg8"
   version="1.1"
   viewBox="0 0 512 512"
   height="512"
   width="512"
   inkscape:export-filename="C:\Users\Michel\source\Projects\Brakasssss Softworks\Les Brakasssss\brakasssss.gitlab.io\static\icon.png"
   inkscape:export-xdpi="96"
   inkscape:export-ydpi="96">
  <metadata
     id="metadata39">
    <rdf:RDF>
      <cc:Work
         rdf:about="">
        <dc:format>image/svg+xml</dc:format>
        <dc:type
           rdf:resource="http://purl.org/dc/dcmitype/StillImage" />
      </cc:Work>
    </rdf:RDF>
  </metadata>
  <sodipodi:namedview
     inkscape:window-maximized="1"
     inkscape:window-y="-8"
     inkscape:window-x="-8"
     inkscape:window-height="1027"
     inkscape:window-width="1920"
     inkscape:showpageshadow="false"
     units="px"
     showgrid="false"
     inkscape:current-layer="group-brakasssss"
     inkscape:document-units="px"
     inkscape:cy="230.94897"
     inkscape:cx="104.94128"
     inkscape:zoom="1"
     inkscape:pageshadow="2"
     inkscape:pageopacity="0.0"
     borderopacity="1.0"
     bordercolor="#666666"
     pagecolor="#ffffff"
     id="base"
     inkscape:document-rotation="0" />
  <defs
     id="defs2">
    <filter
       style="color-interpolation-filters:sRGB"
       inkscape:label="Drop Shadow"
       id="elevation-6">
      <feFlood
         flood-opacity="0.5"
         flood-color="rgb(0,0,0)"
         result="flood"
         id="feFlood3010" />
      <feComposite
         in="flood"
         in2="SourceGraphic"
         operator="in"
         result="composite1"
         id="feComposite3012" />
      <feGaussianBlur
         in="composite1"
         stdDeviation="6"
         result="blur"
         id="feGaussianBlur3014" />
      <feOffset
         dx="0"
         dy="0"
         result="offset"
         id="feOffset3016" />
      <feComposite
         in="SourceGraphic"
         in2="offset"
         operator="over"
         result="composite2"
         id="feComposite3018" />
    </filter>
    <filter
       style="color-interpolation-filters:sRGB"
       inkscape:label="Drop Shadow"
       id="elevation-4">
      <feFlood
         flood-opacity="0.5"
         flood-color="rgb(0,0,0)"
         result="flood"
         id="feFlood890" />
      <feComposite
         in="flood"
         in2="SourceGraphic"
         operator="in"
         result="composite1"
         id="feComposite892" />
      <feGaussianBlur
         in="composite1"
         stdDeviation="4"
         result="blur"
         id="feGaussianBlur894" />
      <feOffset
         dx="0"
         dy="0"
         result="offset"
         id="feOffset896" />
      <feComposite
         in="SourceGraphic"
         in2="offset"
         operator="over"
         result="composite2"
         id="feComposite898" />
    </filter>
    <filter
       style="color-interpolation-filters:sRGB"
       inkscape:label="Drop Shadow"
       id="elevation-2">
      <feFlood
         flood-opacity="0.5"
         flood-color="rgb(0,0,0)"
         result="flood"
         id="feFlood1067" />
      <feComposite
         in="flood"
         in2="SourceGraphic"
         operator="in"
         result="composite1"
         id="feComposite1069" />
      <feGaussianBlur
         in="composite1"
         stdDeviation="2"
         result="blur"
         id="feGaussianBlur1071" />
      <feOffset
         dx="1.38778e-016"
         dy="2.77556e-017"
         result="offset"
         id="feOffset1073" />
      <feComposite
         in="SourceGraphic"
         in2="offset"
         operator="over"
         result="composite2"
         id="feComposite1075" />
    </filter>
  </defs>
  <g
     id="group-background"
     style="filter:url(#elevation-2)">
    <circle
       transform="rotate(165)"
       r="221.81035"
       cy="-313.5347"
       cx="-181.01935"
       id="circle-large"
       style="fill:#11767f;fill-opacity:1;stroke:none;stroke-width:7.0690074;stroke-linecap:round;stroke-linejoin:round;stroke-miterlimit:4;stroke-dasharray:none;stroke-opacity:1;paint-order:markers stroke fill" />
    <circle
       transform="rotate(120)"
       r="177.44827"
       cy="-349.70255"
       cx="120.73561"
       id="circle-medium"
       style="fill:#005373;fill-opacity:1;stroke:none;stroke-width:5.65520573;stroke-linecap:round;stroke-linejoin:round;stroke-miterlimit:4;stroke-dasharray:none;stroke-opacity:1;paint-order:markers stroke fill" />
    <circle
       transform="rotate(75)"
       r="113.56689"
       cy="-122.85976"
       cx="371.69427"
       id="circle-small"
       style="fill:#102e58;fill-opacity:1;stroke:none;stroke-width:3.61933208;stroke-linecap:round;stroke-linejoin:round;stroke-miterlimit:4;stroke-dasharray:none;stroke-opacity:1;paint-order:markers stroke fill" />
  </g>
  <g
     id="group-horns"
     style="filter:url(#elevation-4)"
     transform="matrix(1.0830583,0,0,1.0830583,-21.262935,-21.26292)">
    <path
       transform="matrix(-0.75,0,0,0.75,251.13425,67.125627)"
       style="fill:#ba293d;fill-opacity:1;stroke:none;stroke-width:10.66666603;stroke-linecap:round;stroke-linejoin:round;stroke-miterlimit:4;stroke-dasharray:none;stroke-opacity:1;paint-order:markers stroke fill"
       d="m -52.369294,170.32514 -82.024406,66.93944 80.805445,74.22541 61.6534893,-11.01318 6.8920607,42.54891 61.80713,44.7973 17.673112,-17.67311 -45.807123,-44.79731 2.44127,-68.54891 -71.653487,3.67985 z"
       id="broken-arm"
       inkscape:connector-curvature="0"
       sodipodi:nodetypes="ccccccccccc" />
    <path
       style="fill:#ba293d;fill-opacity:1;stroke:none;stroke-width:5.22114992;stroke-linecap:round;stroke-linejoin:round;stroke-miterlimit:4;stroke-dasharray:none;stroke-opacity:1;paint-order:markers stroke fill"
       d="m 358.77533,38.553899 a 20.884601,20.884601 0 0 0 -13.56278,8.975831 l -46.20481,69.59795 -27.29811,41.11666 -14.52862,3.25457 c -11.28991,2.53064 -18.62699,13.26482 -16.3363,24.60589 l 8.26959,40.9422 c 2.29069,11.34104 21.70278,21.67786 21.70278,21.67786 30.99068,20.57523 44.43049,30.95086 69.46394,32.78211 29.78714,1.86374 58.3066,-12.30628 74.81425,-37.17075 l 23.10274,-34.79755 37.54402,-56.54528 a 20.884601,20.884601 0 0 0 -5.84741,-28.95015 20.884601,20.884601 0 0 0 -28.95016,5.84741 l -37.54401,56.54527 a 20.884601,20.884601 0 0 0 -5.84741,-28.95016 20.884601,20.884601 0 0 0 -28.95017,5.84741 20.884601,20.884601 0 0 0 -5.8474,-28.95015 20.884601,20.884601 0 0 0 -28.95016,5.84741 l 46.20481,-69.597955 a 20.884601,20.884601 0 0 0 -5.84741,-28.950159 20.884601,20.884601 0 0 0 -15.38738,-3.128417 z"
       id="hand-horns"
       inkscape:connector-curvature="0" />
  </g>
  <g
     id="group-band-name"
     style="filter:url(#elevation-6)">
    <g
       id="group-brakasssss"
       style="filter:url(#elevation-2)">
      <path
         sodipodi:nodetypes="ccccc"
         inkscape:connector-curvature="0"
         id="bg-brakasssss"
         d="M 460.97244,341.81345 61.593397,345.93285 64.742063,469.2908 464.12266,435.14544 Z"
         style="fill:#ffc233;fill-opacity:1;stroke:none;stroke-width:9.65743637;stroke-linecap:round;stroke-linejoin:round;stroke-miterlimit:4;stroke-dasharray:none;stroke-opacity:1;paint-order:markers stroke fill"
         transform="matrix(-1.0744204,0.13651387,0.13651387,1.0744204,490.48419,-53.643576)" />
      <path
         d="M 467.26562 382.86523 L 456.48828 383.33984 L 459.69727 403.64453 L 467.29492 403.46484 L 467.26562 382.86523 z M 207.29102 383.44922 L 178.62305 387.22656 L 194.66992 390.71875 L 201.53125 439.93359 L 193.17773 445.40625 C 193.03725 445.33601 192.89216 445.27178 192.75195 445.20117 C 191.0799 444.35905 189.36595 443.54535 187.60938 442.75781 L 187.76367 425.20312 C 187.75367 424.54232 187.72035 423.88151 187.66602 423.22266 C 187.65608 422.56186 187.62465 421.90299 187.57031 421.24414 C 187.06881 415.16243 185.26676 410.84071 182.16211 408.28125 C 179.10181 405.71985 175.02089 404.55135 169.91992 404.77539 C 168.3231 404.84552 166.59209 405.177 164.72656 405.76758 C 162.9054 406.35621 161.21748 407.21713 159.66406 408.35352 C 158.155 409.48795 156.91267 410.89201 155.9375 412.5625 C 154.96233 414.23299 154.56611 416.18215 154.75 418.41211 C 154.88374 420.0339 155.46627 421.43199 156.49805 422.60742 C 157.52565 423.73214 158.77257 424.26349 160.23633 424.19922 C 163.47433 424.057 165.27954 422.19797 165.65234 418.62109 L 165.61523 418.16406 C 165.54418 417.30248 165.36986 416.54754 165.09375 415.89844 C 164.81346 415.19864 164.34079 414.58295 163.67383 414.05273 C 164.42047 412.85005 165.30705 411.99703 166.33398 411.49414 C 167.4011 410.93865 168.59899 410.63269 169.92969 410.57422 C 171.34908 410.51188 172.52757 410.76478 173.46484 411.33398 C 174.44648 411.90124 175.2251 412.70713 175.80078 413.75 C 176.41665 414.74024 176.86822 415.88931 177.1543 417.19922 C 177.48474 418.50719 177.70552 419.84646 177.81836 421.21484 C 177.87685 421.92438 177.91353 422.63422 177.92773 423.3457 C 177.93773 424.0065 177.92503 424.66733 177.89062 425.33008 C 176.05948 425.25791 174.24995 425.15995 172.45898 425.03516 C 170.66802 424.91033 168.83952 424.88888 166.97656 424.9707 C 165.46845 425.03694 163.93253 425.30762 162.36914 425.7832 C 160.80575 426.25879 159.39441 426.95693 158.13477 427.87695 C 156.91949 428.79502 155.95036 429.98142 155.22461 431.4375 C 154.49886 432.89359 154.21955 434.63683 154.38672 436.66406 C 154.53717 438.48858 155.108 440.01413 156.09961 441.24219 C 157.09122 442.47025 158.28604 443.46044 159.68359 444.21289 C 161.07697 444.91466 162.56476 445.40873 164.14648 445.69531 C 165.7282 445.98187 167.16094 446.09748 168.44727 446.04102 C 169.86667 445.97866 171.28568 445.91585 172.70508 445.85352 C 174.1203 445.74049 175.53091 445.55217 176.93359 445.28711 L 176.81836 449.56445 L 197.82812 447.65039 C 197.63785 447.56265 197.45346 447.46729 197.26367 447.37891 L 224.38281 444.95703 L 210.57422 439.46094 L 209.69336 425.53711 L 214.61719 421.27734 L 230.07422 444.32617 L 220.17969 453.91602 L 251.66992 444.67383 L 237.77148 441.31641 L 220.47656 413.77148 L 230.73047 403.70703 L 245.35547 394.82422 L 211.1582 396.32617 L 222.25977 403.01172 L 209.2832 417.31445 L 207.29102 383.44922 z M 454.05469 387.03125 L 450.68164 396.33594 C 448.56279 394.39442 446.2623 392.94347 443.7793 391.98438 C 441.33648 390.97264 438.78442 390.52568 436.12305 390.64258 C 434.43751 390.71661 432.73191 391.0971 431.00781 391.7832 C 429.32389 392.41667 427.82132 393.34621 426.49805 394.57422 C 425.17059 395.75155 424.10997 397.19678 423.31641 398.91016 C 422.56719 400.62159 422.27955 402.54132 422.45508 404.66992 C 422.63896 406.89988 423.31232 408.85486 424.47461 410.5332 C 425.63272 412.16088 427.01827 413.57461 428.63086 414.77539 C 430.28363 415.92354 432.03333 416.91567 433.88281 417.75 C 435.77247 418.5317 437.49306 419.14341 439.04297 419.58398 C 439.59196 419.76332 440.41569 420.03193 441.51367 420.39062 C 442.60748 420.69864 443.70979 421.10841 444.82031 421.61914 C 445.92666 422.0792 446.91038 422.67134 447.77148 423.39648 C 448.6284 424.07095 449.09302 424.83765 449.16406 425.69922 C 449.22676 426.45943 449.07644 427.07711 448.71484 427.55078 C 448.35324 428.02443 447.87157 428.40095 447.27148 428.68164 C 446.71574 428.96037 446.11011 429.16629 445.45312 429.29688 C 444.83631 429.37483 444.28479 429.42391 443.79688 429.44531 C 441.93392 429.52714 440.10676 429.25073 438.31836 428.61719 C 436.52578 427.93295 434.82353 426.9918 433.21094 425.79102 C 431.59834 424.59023 430.1246 423.17846 428.78906 421.55859 C 427.49789 419.93677 426.39892 418.20535 425.49023 416.36328 L 425.3457 439.7168 L 430.13867 432.25781 C 431.08431 432.92838 432.1325 433.49307 433.2832 433.95117 C 434.47826 434.40733 435.68914 434.78572 436.91602 435.08789 C 438.14289 435.39006 439.36379 435.61745 440.57812 435.76758 C 441.83264 435.86504 442.97004 435.8905 443.99023 435.8457 C 445.76448 435.76778 447.59068 435.50885 449.46875 435.07031 C 451.34263 434.58109 453.01885 433.84763 454.49609 432.86719 C 455.96916 431.83607 457.1487 430.48692 458.03516 428.82031 C 458.92161 427.15372 459.25975 425.05358 459.05078 422.51953 C 458.85435 420.13752 458.06543 418.13745 456.68555 416.51953 C 455.34583 414.84898 453.74147 413.47054 451.87109 412.38281 C 450.00073 411.29508 448.0336 410.38925 445.9707 409.66602 C 443.9078 408.9428 442.05322 408.31148 440.40625 407.77344 C 439.76855 407.59799 438.9465 407.35488 437.94141 407.04297 C 436.97649 406.67843 436.00843 406.26277 435.03516 405.79688 C 434.10206 405.27834 433.27268 404.67835 432.54883 403.99805 C 431.86933 403.31579 431.48956 402.49418 431.41016 401.53125 C 431.34328 400.72035 431.49024 400.05168 431.84766 399.52734 C 432.24524 398.95037 432.71993 398.49738 433.27148 398.16797 C 433.8674 397.83661 434.4934 397.6052 435.15039 397.47461 C 435.84755 397.29142 436.46187 397.18942 436.99414 397.16602 C 438.81275 397.08614 440.60084 397.43902 442.35742 398.22656 C 444.114 399.01411 445.78251 400.08663 447.36328 401.44141 C 448.94405 402.79619 450.40611 404.33345 451.75 406.05469 C 453.08971 407.72523 454.22942 409.40371 455.16992 411.0918 L 454.05469 387.03125 z M 417.72656 388.62695 L 414.35352 397.93164 C 412.23467 395.99013 409.93417 394.53918 407.45117 393.58008 C 405.00835 392.56835 402.4563 392.12139 399.79492 392.23828 C 398.10938 392.31231 396.40379 392.6928 394.67969 393.37891 C 392.99577 394.01237 391.49321 394.94192 390.16992 396.16992 C 388.84247 397.34724 387.78185 398.79247 386.98828 400.50586 C 386.23907 402.21729 385.95143 404.13703 386.12695 406.26562 C 386.31084 408.49558 386.98419 410.45056 388.14648 412.12891 C 389.30458 413.75657 390.69014 415.17031 392.30273 416.37109 C 393.95551 417.51924 395.70717 418.51136 397.55664 419.3457 C 399.44629 420.1274 401.16494 420.73911 402.71484 421.17969 C 403.26384 421.35903 404.08757 421.62764 405.18555 421.98633 C 406.27935 422.29434 407.38167 422.70411 408.49219 423.21484 C 409.59853 423.6749 410.58227 424.26704 411.44336 424.99219 C 412.30028 425.66665 412.76489 426.43335 412.83594 427.29492 C 412.89863 428.05514 412.74831 428.67282 412.38672 429.14648 C 412.02513 429.62014 411.54541 429.99666 410.94531 430.27734 C 410.38958 430.55608 409.78199 430.76199 409.125 430.89258 C 408.50819 430.97052 407.95667 431.01962 407.46875 431.04102 C 405.60579 431.12284 403.78059 430.84644 401.99219 430.21289 C 400.1996 429.52865 398.49541 428.58751 396.88281 427.38672 C 395.27022 426.18594 393.79647 424.77417 392.46094 423.1543 C 391.16976 421.53248 390.0708 419.80106 389.16211 417.95898 L 389.01758 441.3125 L 393.81055 433.85352 C 394.75618 434.52409 395.80437 435.08877 396.95508 435.54688 C 398.15013 436.00303 399.36102 436.38143 400.58789 436.68359 C 401.81476 436.98575 403.03566 437.21315 404.25 437.36328 C 405.50451 437.46075 406.64192 437.48621 407.66211 437.44141 C 409.43636 437.36348 411.26256 437.10456 413.14062 436.66602 C 415.01451 436.1768 416.69073 435.44333 418.16797 434.46289 C 419.64104 433.43176 420.82057 432.08262 421.70703 430.41602 C 422.59348 428.74942 422.93162 426.64928 422.72266 424.11523 C 422.52623 421.73323 421.73927 419.73316 420.35938 418.11523 C 419.01967 416.44469 417.41334 415.0643 415.54297 413.97656 C 413.6726 412.88883 411.70548 411.98495 409.64258 411.26172 C 407.57968 410.5385 405.72511 409.90718 404.07812 409.36914 C 403.44042 409.19369 402.62032 408.95058 401.61523 408.63867 C 400.65031 408.27413 399.6803 407.85847 398.70703 407.39258 C 397.77394 406.87405 396.94651 406.27406 396.22266 405.59375 C 395.54316 404.91149 395.16339 404.08989 395.08398 403.12695 C 395.01712 402.31605 395.16211 401.64739 395.51953 401.12305 C 395.91712 400.54607 396.39181 400.09309 396.94336 399.76367 C 397.53927 399.43231 398.16528 399.2009 398.82227 399.07031 C 399.51943 398.88713 400.13374 398.78512 400.66602 398.76172 C 402.48462 398.68185 404.27272 399.03473 406.0293 399.82227 C 407.78588 400.60981 409.45438 401.68233 411.03516 403.03711 C 412.61593 404.39188 414.07798 405.92916 415.42188 407.65039 C 416.76159 409.32094 417.90129 410.99942 418.8418 412.6875 L 417.72656 388.62695 z M 381.39844 390.22266 L 378.02539 399.52734 C 375.90655 397.58582 373.60605 396.13487 371.12305 395.17578 C 368.68022 394.16405 366.12817 393.71709 363.4668 393.83398 C 361.78126 393.90802 360.07566 394.28851 358.35156 394.97461 C 356.66764 395.60808 355.16507 396.53762 353.8418 397.76562 C 352.51434 398.94295 351.45372 400.38818 350.66016 402.10156 C 349.91094 403.813 349.62329 405.73273 349.79883 407.86133 C 349.98271 410.09129 350.65607 412.04627 351.81836 413.72461 C 352.97647 415.35228 354.36202 416.76602 355.97461 417.9668 C 357.62738 419.11495 359.37904 420.10707 361.22852 420.94141 C 363.11817 421.72311 364.83681 422.33286 366.38672 422.77344 C 366.93571 422.95278 367.75944 423.22334 368.85742 423.58203 C 369.95122 423.89004 371.05354 424.29787 372.16406 424.80859 C 373.2704 425.26865 374.25413 425.86274 375.11523 426.58789 C 375.97215 427.26236 376.43677 428.02905 376.50781 428.89062 C 376.5705 429.65084 376.42019 430.26852 376.05859 430.74219 C 375.697 431.21584 375.21727 431.59236 374.61719 431.87305 C 374.06145 432.15177 373.45386 432.35769 372.79688 432.48828 C 372.18006 432.56617 371.62855 432.61525 371.14062 432.63672 C 369.27766 432.71855 367.45247 432.44215 365.66406 431.80859 C 363.87148 431.12436 362.16923 430.18321 360.55664 428.98242 C 358.94405 427.78164 357.46834 426.36987 356.13281 424.75 C 354.84163 423.12818 353.74267 421.39677 352.83398 419.55469 L 352.68945 442.9082 L 357.48242 435.44922 C 358.42806 436.11979 359.47626 436.68447 360.62695 437.14258 C 361.82201 437.59873 363.03289 437.97713 364.25977 438.2793 C 365.48664 438.58146 366.70754 438.80886 367.92188 438.95898 C 369.17639 439.05645 370.3138 439.08191 371.33398 439.03711 C 373.10823 438.95918 374.93443 438.70026 376.8125 438.26172 C 378.68639 437.7725 380.3626 437.03903 381.83984 436.05859 C 383.31291 435.02747 384.49245 433.67833 385.37891 432.01172 C 386.26537 430.34513 386.6035 428.24499 386.39453 425.71094 C 386.1981 423.32893 385.41114 421.32886 384.03125 419.71094 C 382.69154 418.04038 381.08522 416.65999 379.21484 415.57227 C 377.34448 414.48453 375.37931 413.58065 373.31641 412.85742 C 371.25351 412.1342 369.39697 411.50289 367.75 410.96484 C 367.11229 410.7894 366.2922 410.54628 365.28711 410.23438 C 364.3222 409.86983 363.35218 409.45417 362.37891 408.98828 C 361.44581 408.46975 360.61838 407.86976 359.89453 407.18945 C 359.21504 406.50719 358.83526 405.6856 358.75586 404.72266 C 358.68899 403.91176 358.83399 403.24309 359.19141 402.71875 C 359.589 402.14177 360.06368 401.68878 360.61523 401.35938 C 361.21115 401.02802 361.83715 400.7966 362.49414 400.66602 C 363.1913 400.48283 363.80562 400.38082 364.33789 400.35742 C 366.1565 400.27754 367.94459 400.63043 369.70117 401.41797 C 371.45776 402.20552 373.12625 403.27609 374.70703 404.63086 C 376.2878 405.98564 377.74986 407.52486 379.09375 409.24609 C 380.43346 410.91664 381.57512 412.59512 382.51562 414.2832 L 381.39844 390.22266 z M 345.07031 391.81836 L 341.69727 401.12305 C 339.57843 399.18153 337.27793 397.73058 334.79492 396.77148 C 332.3521 395.75976 329.80005 395.3128 327.13867 395.42969 C 325.45314 395.50372 323.74949 395.88225 322.02539 396.56836 C 320.34147 397.20183 318.83695 398.13332 317.51367 399.36133 C 316.18621 400.53865 315.1256 401.98389 314.33203 403.69727 C 313.58282 405.40871 313.29713 407.32843 313.47266 409.45703 C 313.65654 411.68698 314.32794 413.64197 315.49023 415.32031 C 316.64834 416.94798 318.03389 418.36172 319.64648 419.5625 C 321.29926 420.71065 323.05092 421.70278 324.90039 422.53711 C 326.79004 423.31881 328.51064 423.92857 330.06055 424.36914 C 330.60953 424.54848 331.43326 424.81904 332.53125 425.17773 C 333.62505 425.48575 334.72541 425.89356 335.83594 426.4043 C 336.94228 426.86435 337.92601 427.45845 338.78711 428.18359 C 339.64403 428.85806 340.10864 429.62475 340.17969 430.48633 C 340.24238 431.24654 340.09402 431.86422 339.73242 432.33789 C 339.37082 432.81155 338.88915 433.18807 338.28906 433.46875 C 337.73332 433.74748 337.12768 433.9534 336.4707 434.08398 C 335.8539 434.16193 335.30043 434.21102 334.8125 434.23242 C 332.94954 434.31425 331.12434 434.03784 329.33594 433.4043 C 327.54336 432.72006 325.84111 431.77696 324.22852 430.57617 C 322.61592 429.37539 321.14217 427.96557 319.80664 426.3457 C 318.51546 424.72389 317.41455 422.99247 316.50586 421.15039 L 316.36133 444.50391 L 321.15625 437.04492 C 322.10188 437.7155 323.15008 438.28017 324.30078 438.73828 C 325.49583 439.19443 326.70672 439.57283 327.93359 439.875 C 329.16047 440.17716 330.37942 440.40261 331.59375 440.55273 C 332.84826 440.6502 333.98567 440.67761 335.00586 440.63281 C 336.78011 440.55488 338.60631 440.29596 340.48438 439.85742 C 342.35826 439.3682 344.03449 438.63474 345.51172 437.6543 C 346.98479 436.62318 348.16432 435.27402 349.05078 433.60742 C 349.93724 431.94082 350.27733 429.84069 350.06836 427.30664 C 349.87193 424.92463 349.08301 422.92456 347.70312 421.30664 C 346.36341 419.63609 344.75905 418.2557 342.88867 417.16797 C 341.01831 416.08024 339.05118 415.17636 336.98828 414.45312 C 334.92538 413.72991 333.0708 413.09859 331.42383 412.56055 C 330.78613 412.3851 329.96408 412.14198 328.95898 411.83008 C 327.99406 411.46554 327.02405 411.04988 326.05078 410.58398 C 325.11769 410.06546 324.29026 409.46547 323.56641 408.78516 C 322.88691 408.1029 322.50713 407.28129 322.42773 406.31836 C 322.36086 405.50746 322.50586 404.83879 322.86328 404.31445 C 323.26087 403.73748 323.73556 403.28449 324.28711 402.95508 C 324.88302 402.62372 325.50904 402.39231 326.16602 402.26172 C 326.86318 402.07853 327.47945 401.97653 328.01172 401.95312 C 329.83033 401.87325 331.61646 402.22613 333.37305 403.01367 C 335.12963 403.80122 336.79813 404.87178 338.37891 406.22656 C 339.95969 407.58134 341.42368 409.12056 342.76758 410.8418 C 344.10729 412.51235 345.247 414.19083 346.1875 415.87891 L 345.07031 391.81836 z M 308.74414 393.41406 L 305.37109 402.71875 C 303.25225 400.77723 300.9498 399.32629 298.4668 398.36719 C 296.02397 397.35546 293.47192 396.9085 290.81055 397.02539 C 289.12501 397.09942 287.42136 397.47796 285.69727 398.16406 C 284.01334 398.79753 282.50882 399.72902 281.18555 400.95703 C 279.85809 402.13436 278.79747 403.57959 278.00391 405.29297 C 277.25469 407.0044 276.969 408.92413 277.14453 411.05273 C 277.32841 413.28269 278.00178 415.23768 279.16406 416.91602 C 280.32218 418.54369 281.70772 419.95742 283.32031 421.1582 C 284.97308 422.30636 286.72279 423.29848 288.57227 424.13281 C 290.46192 424.91451 292.18252 425.52426 293.73242 425.96484 C 294.28141 426.14418 295.10514 426.41279 296.20312 426.77148 C 297.29693 427.07949 298.39924 427.48927 299.50977 428 C 300.61611 428.46006 301.59983 429.05415 302.46094 429.7793 C 303.31786 430.45376 303.78052 431.22046 303.85156 432.08203 C 303.91425 432.84224 303.76589 433.45993 303.4043 433.93359 C 303.0427 434.40725 302.56102 434.78377 301.96094 435.06445 C 301.4052 435.34318 300.79956 435.5491 300.14258 435.67969 C 299.52576 435.75757 298.97229 435.80666 298.48438 435.82812 C 296.62142 435.90994 294.79622 435.63355 293.00781 435 C 291.21523 434.31577 289.51298 433.37267 287.90039 432.17188 C 286.2878 430.97109 284.81405 429.56127 283.47852 427.94141 C 282.18734 426.31959 281.08642 424.58817 280.17773 422.74609 L 280.05664 442.37109 C 279.42242 442.06197 278.77698 441.76774 278.14844 441.45117 C 276.47638 440.60905 274.76244 439.79535 273.00586 439.00781 L 273.16016 421.45117 C 273.15022 420.79037 273.11879 420.13151 273.06445 419.47266 C 273.05445 418.81186 273.02113 418.15103 272.9668 417.49219 C 272.46529 411.41047 270.66325 407.0907 267.55859 404.53125 C 264.49829 401.96984 260.41737 400.80135 255.31641 401.02539 C 253.71958 401.09552 251.98857 401.42504 250.12305 402.01562 C 248.30188 402.60427 246.61396 403.46714 245.06055 404.60352 C 243.55149 405.73795 242.30916 407.14005 241.33398 408.81055 C 240.35881 410.48104 239.96455 412.43214 240.14844 414.66211 C 240.28218 416.2839 240.8647 417.68199 241.89648 418.85742 C 242.92409 419.98214 244.16906 420.51349 245.63281 420.44922 C 248.87082 420.30701 250.67603 418.44603 251.04883 414.86914 L 251.01172 414.41406 C 250.94067 413.55249 250.76635 412.7956 250.49023 412.14648 C 250.20995 411.44669 249.73727 410.83295 249.07031 410.30273 C 249.81696 409.10005 250.70354 408.24703 251.73047 407.74414 C 252.79758 407.18865 253.99548 406.88073 255.32617 406.82227 C 256.74557 406.75992 257.92405 407.01478 258.86133 407.58398 C 259.84296 408.15124 260.62159 408.95518 261.19727 409.99805 C 261.81313 410.98829 262.2647 412.13931 262.55078 413.44922 C 262.88122 414.75719 263.102 416.0945 263.21484 417.46289 C 263.27334 418.17242 263.31002 418.88422 263.32422 419.5957 C 263.33422 420.2565 263.32346 420.91733 263.28906 421.58008 C 261.45792 421.50791 259.64644 421.40995 257.85547 421.28516 C 256.0645 421.16034 254.23796 421.13888 252.375 421.2207 C 250.86689 421.28694 249.33097 421.55762 247.76758 422.0332 C 246.20419 422.50878 244.79284 423.20693 243.5332 424.12695 C 242.31792 425.04502 241.34685 426.23141 240.62109 427.6875 C 239.89534 429.14358 239.61603 430.88487 239.7832 432.91211 C 239.93366 434.73662 240.50449 436.26413 241.49609 437.49219 C 242.4877 438.72024 243.68252 439.71044 245.08008 440.46289 C 246.47345 441.16466 247.96124 441.65873 249.54297 441.94531 C 251.12469 442.23186 252.55742 442.34553 253.84375 442.28906 C 255.26316 442.22671 256.68412 442.16585 258.10352 442.10352 C 259.51874 441.9905 260.92739 441.80022 262.33008 441.53516 L 262.21484 445.8125 L 280.04492 444.1875 L 280.0332 446.09961 L 281.33789 444.07031 L 283.22461 443.89844 C 282.7673 443.68757 282.32359 443.45876 281.86914 443.24414 L 284.82812 438.64062 C 285.77376 439.31119 286.82196 439.87588 287.97266 440.33398 C 289.16771 440.79014 290.3786 441.16854 291.60547 441.4707 C 292.83235 441.77287 294.05324 441.99831 295.26758 442.14844 C 296.52208 442.2459 297.65949 442.27332 298.67969 442.22852 C 300.45393 442.15059 302.28014 441.89166 304.1582 441.45312 C 306.03209 440.9639 307.70635 440.22849 309.18359 439.24805 C 310.65665 438.21693 311.8362 436.86973 312.72266 435.20312 C 313.60912 433.53653 313.94919 431.4364 313.74023 428.90234 C 313.54381 426.52034 312.75489 424.52026 311.375 422.90234 C 310.03529 421.23179 308.43092 419.8514 306.56055 418.76367 C 304.69017 417.67593 302.72306 416.7701 300.66016 416.04688 C 298.59726 415.32366 296.74268 414.6943 295.0957 414.15625 C 294.458 413.9808 293.63595 413.73573 292.63086 413.42383 C 291.66595 413.05929 290.69788 412.64558 289.72461 412.17969 C 288.79151 411.66115 287.96213 411.06117 287.23828 410.38086 C 286.55879 409.6986 286.17902 408.877 286.09961 407.91406 C 286.03274 407.10317 286.17774 406.4345 286.53516 405.91016 C 286.93275 405.33318 287.40743 404.88019 287.95898 404.55078 C 288.5549 404.21942 289.18286 403.98801 289.83984 403.85742 C 290.537 403.67423 291.15132 403.57028 291.68359 403.54688 C 293.50219 403.467 295.29029 403.82184 297.04688 404.60938 C 298.80346 405.39693 300.47195 406.46749 302.05273 407.82227 C 303.63351 409.17705 305.09557 410.71627 306.43945 412.4375 C 307.77917 414.10805 308.91887 415.78652 309.85938 417.47461 L 308.74414 393.41406 z M 82.046875 400.77734 L 48.849609 401.47266 L 63.8125 410.42773 L 70.361328 451.79883 L 56.039062 462.72852 L 82.908203 458.18945 C 84.093283 457.98481 85.629203 457.71413 87.515625 457.37695 C 89.402046 457.03978 91.390936 456.59652 93.482422 456.04688 C 95.622443 455.54596 97.728238 454.89484 99.798828 454.0918 C 101.91796 453.33748 103.79928 452.39028 105.44141 451.25 C 107.12789 450.10777 108.44142 448.77822 109.38477 447.26172 C 110.37247 445.74327 110.7824 443.97059 110.61523 441.94336 C 110.47732 440.27088 110.04242 438.76298 109.30859 437.42188 C 108.61912 436.07881 107.72123 434.8984 106.61328 433.87891 C 105.54967 432.85747 104.36521 431.99277 103.06055 431.28711 C 101.75588 430.58144 100.46318 430.02853 99.183594 429.62695 C 100.39631 429.21764 101.69908 428.55087 103.0918 427.625 C 104.4845 426.69913 105.7509 425.60096 106.89258 424.33008 C 108.03425 423.05918 108.9422 421.64533 109.61523 420.08984 C 110.33262 418.5324 110.62229 416.91661 110.48438 415.24414 C 110.38545 414.04453 110.13449 412.94448 109.74023 411.93555 L 120.5918 414.72461 L 125.24219 441.14844 C 123.0694 442.87153 120.89713 444.6188 118.72852 446.39258 C 116.55573 448.11568 114.3854 449.86489 112.2168 451.63867 L 150.30469 445.46484 L 133.58398 439.48438 C 133.55476 439.12961 133.51808 438.41976 133.47461 437.35352 C 133.42705 436.23659 133.36762 434.96789 133.29492 433.54688 C 133.22223 432.12586 133.14376 430.62775 133.05859 429.05469 C 132.97336 427.48163 132.89825 426.03645 132.83398 424.7168 C 132.76965 423.39714 132.70191 422.30494 132.63086 421.44336 C 132.60419 420.57983 132.60853 420.09745 132.64453 419.99414 C 132.99872 418.35092 133.61638 416.92532 134.49609 415.7168 C 135.37163 414.45759 136.6303 413.79083 138.27148 413.71875 C 139.20296 413.67784 139.93654 413.95036 140.47461 414.53711 C 141.05286 415.07122 141.61736 415.70848 142.16797 416.44727 C 142.75875 417.13342 143.45751 417.76479 144.26172 418.33984 C 145.06174 418.86422 146.14839 419.09556 147.52344 419.03516 C 149.3864 418.95334 150.81812 418.22969 151.81836 416.86328 C 152.81443 415.44619 153.22604 413.69901 153.05469 411.62109 C 152.98781 410.81019 152.80677 409.95329 152.50977 409.05078 C 152.16422 408.09953 151.67588 407.30735 151.04492 406.67383 C 150.40978 405.98962 149.69765 405.46022 148.91016 405.08789 C 148.12267 404.71556 147.30089 404.44695 146.44141 404.28125 C 145.58192 404.11554 144.75153 404.05087 143.95312 404.08594 C 141.55789 404.19114 139.40631 404.81874 137.49805 405.9707 C 135.62996 407.07004 133.82575 408.39569 132.08398 409.94727 L 131.64062 402.94727 L 108.61914 409.84375 C 108.59964 409.81618 108.5823 409.78714 108.5625 409.75977 C 107.49728 408.17889 106.12041 406.86516 104.43164 405.82031 C 102.78305 404.72284 100.92981 403.83856 98.871094 403.16602 C 96.85673 402.49152 94.834152 401.99551 92.804688 401.67773 C 90.771044 401.30927 88.793176 401.06622 86.869141 400.94727 C 84.989466 400.8264 83.381744 400.76961 82.046875 400.77734 z M 83.353516 408.31055 C 83.788078 408.3169 84.27214 408.33403 84.808594 408.36133 C 85.877322 408.36525 87.04377 408.46716 88.306641 408.66602 C 89.565332 408.81419 90.809964 409.06513 92.041016 409.41797 C 93.312245 409.71819 94.484342 410.14952 95.554688 410.71289 C 96.625031 411.27625 97.505231 411.97429 98.197266 412.80859 C 98.88512 413.59222 99.276924 414.56676 99.373047 415.73242 C 99.523499 417.55693 98.956927 419.05704 97.673828 420.23242 C 96.435084 421.40585 94.910467 422.33735 93.097656 423.02734 C 91.329202 423.7154 89.523707 424.22727 87.681641 424.5625 C 85.835397 424.84707 84.379003 425.01381 83.314453 425.06055 C 82.382972 425.10148 81.427279 425.11717 80.447266 425.10938 C 79.507427 425.04894 78.568746 424.9882 77.628906 424.92773 L 75.912109 408.98047 C 76.923947 408.83434 77.961117 408.71271 79.021484 408.61523 C 80.077675 408.46709 81.136622 408.37095 82.201172 408.32422 C 82.533844 408.30962 82.918953 408.3042 83.353516 408.31055 z M 255.99414 426.25 C 257.1474 426.19935 258.30854 426.25027 259.47852 426.40234 C 260.64432 426.50373 261.81076 426.60368 262.97656 426.70508 L 262.62109 435.34375 C 261.52473 435.5445 260.38235 435.74653 259.19727 435.95117 C 258.05655 436.15385 256.91107 436.28136 255.75781 436.33203 C 255.18118 436.35736 254.57325 436.28092 253.93555 436.10547 C 253.3422 435.92806 252.76298 435.64964 252.19727 435.26758 C 251.67591 434.88356 251.23733 434.41885 250.88086 433.875 C 250.52019 433.28047 250.30876 432.60202 250.24609 431.8418 C 250.16251 430.82818 250.26979 429.98499 250.57031 429.31055 C 250.86665 428.58543 251.28688 428.00695 251.83008 427.57617 C 252.41763 427.14345 253.06065 426.83555 253.75781 426.65234 C 254.49515 426.41651 255.24008 426.28313 255.99414 426.25 z M 170.59766 430 C 171.75092 429.94935 172.91205 430.00027 174.08203 430.15234 C 175.24783 430.25373 176.41428 430.35564 177.58008 430.45703 L 177.22266 439.09375 C 176.12629 439.2945 174.98586 439.49653 173.80078 439.70117 C 172.66005 439.90385 171.51264 440.03136 170.35938 440.08203 C 169.78274 440.10736 169.17676 440.03287 168.53906 439.85742 C 167.94572 439.68002 167.36649 439.39965 166.80078 439.01758 C 166.27943 438.63357 165.83889 438.16886 165.48242 437.625 C 165.12176 437.03047 164.91032 436.35396 164.84766 435.59375 C 164.76408 434.58013 164.87331 433.73498 165.17383 433.06055 C 165.47017 432.33543 165.8904 431.7589 166.43359 431.32812 C 167.02115 430.8954 167.66221 430.5875 168.35938 430.4043 C 169.09671 430.16846 169.8436 430.03313 170.59766 430 z M 80.738281 433.29883 C 81.195022 433.30419 81.703087 433.31937 82.261719 433.3457 C 83.423339 433.39642 84.657618 433.51989 85.964844 433.7168 C 87.312248 433.86108 88.669082 434.10808 90.033203 434.45508 C 91.397323 434.80208 92.638932 435.28048 93.757812 435.89258 C 94.872513 436.45399 95.800446 437.17751 96.541016 438.06055 C 97.321762 438.89095 97.759346 439.88903 97.855469 441.05469 C 97.947412 442.16967 97.697539 443.19719 97.107422 444.13867 C 96.513125 445.02947 95.713071 445.85309 94.707031 446.60938 C 93.741168 447.31304 92.616747 447.97196 91.332031 448.58789 C 90.087493 449.1512 88.837154 449.63951 87.580078 450.05078 C 86.318823 450.41136 85.118967 450.71732 83.982422 450.9707 C 82.886056 451.17148 82.00687 451.31271 81.345703 451.39258 L 79.322266 433.32227 L 79.521484 433.31445 C 79.876334 433.29885 80.28154 433.29346 80.738281 433.29883 z "
         style="font-style:normal;font-variant:normal;font-weight:normal;font-stretch:normal;font-size:72.9585px;line-height:1.42497px;font-family:'Fontdiner Swanky';-inkscape-font-specification:'Fontdiner Swanky';letter-spacing:0px;word-spacing:0px;fill:#418b80;fill-opacity:1;stroke:none;stroke-width:1.13998"
         id="text-brakasssss" />
    </g>
    <g
       style="filter:url(#elevation-4)"
       id="group-les">
      <path
         sodipodi:nodetypes="ccccc"
         inkscape:connector-curvature="0"
         id="bg-les"
         d="m 99.998298,306.0127 128.964102,-0.97272 6.78553,62.87024 -134.78639,17.38815 z"
         style="fill:#418b80;fill-opacity:1;stroke:none;stroke-width:4.61568165;stroke-linecap:round;stroke-linejoin:round;stroke-miterlimit:4;stroke-dasharray:none;stroke-opacity:1;paint-order:markers stroke fill"
         transform="matrix(0.75678795,0.07433421,-0.06916675,0.91196859,36.493855,27.497315)" />
      <path
         id="text-les"
         style="font-style:normal;font-variant:normal;font-weight:normal;font-stretch:normal;font-size:48.0315px;line-height:0.938116px;font-family:'Fontdiner Swanky';-inkscape-font-specification:'Fontdiner Swanky';letter-spacing:0px;word-spacing:0px;fill:#ffc233;fill-opacity:1;stroke:none;stroke-width:0.750493"
         d="m 96.810547,324.26953 10.474613,5.4082 -3.15821,28.21289 -11.691403,4.62696 35.332033,1.22265 3.28125,-20.20117 -8.82227,16.11328 -11.00586,-1.2832 4.99219,-27.91602 11.05273,-3.80664 z m 86.537113,15.08008 -3.7461,5.51562 c -1.12341,-1.38454 -2.44638,-2.47843 -3.9707,-3.28125 -1.48889,-0.83225 -3.14045,-1.32133 -4.95508,-1.46875 -1.14926,-0.0934 -2.36086,0.002 -3.63281,0.28711 -1.23652,0.2552 -2.39736,0.70991 -3.48438,1.36524 -1.08182,0.62342 -2.02587,1.43603 -2.83203,2.4375 -0.77591,1.00392 -1.27255,2.17536 -1.49023,3.51562 -0.22805,1.40409 -0.0838,2.67688 0.43555,3.81836 0.52457,1.10958 1.23605,2.10501 2.13476,2.98633 0.93414,0.85185 1.95972,1.61443 3.07617,2.28711 1.15189,0.64322 2.2169,1.16572 3.19336,1.56836 0.3422,0.15713 0.85468,0.39278 1.53906,0.70703 0.68958,0.28234 1.37023,0.62907 2.03907,1.03906 0.67402,0.37808 1.24429,0.82867 1.71093,1.35157 0.47184,0.49098 0.66233,1.00829 0.57422,1.55078 -0.0777,0.47866 -0.2749,0.85015 -0.59375,1.11523 -0.31884,0.26509 -0.70301,0.46078 -1.15234,0.58594 -0.41908,0.12762 -0.86215,0.20351 -1.32617,0.23047 -0.4286,-0.002 -0.80795,-0.0159 -1.14063,-0.043 -1.27024,-0.10319 -2.45946,-0.42618 -3.5664,-0.96875 -1.10177,-0.57448 -2.10129,-1.30228 -3,-2.1836 -0.89872,-0.88131 -1.67087,-1.88255 -2.31641,-3.00195 -0.6153,-1.11694 -1.08387,-2.28729 -1.40625,-3.50976 l -3.78516,14.5332 4.41211,-4.24805 c 0.53231,0.4959 1.1512,0.93392 1.85547,1.31446 0.73451,0.38299 1.49119,0.72005 2.27149,1.00976 0.7803,0.28972 1.56938,0.53063 2.36523,0.72461 0.83128,0.16453 1.59345,0.27552 2.28906,0.33203 1.20975,0.0983 2.48355,0.0884 3.82032,-0.0293 1.34194,-0.14964 2.5884,-0.46862 3.74023,-0.95703 1.15701,-0.52031 2.16588,-1.26386 3.02734,-2.22851 0.86146,-0.96464 1.4225,-2.24429 1.68164,-3.83985 0.2436,-1.49981 0.0274,-2.80978 -0.64843,-3.93164 -0.64036,-1.15131 -1.50516,-2.14432 -2.59571,-2.97656 -1.09054,-0.83223 -2.27469,-1.55855 -3.55273,-2.17969 -1.27804,-0.62113 -2.43045,-1.16728 -3.45703,-1.63867 -0.40268,-0.16204 -0.91975,-0.38077 -1.54883,-0.6582 -0.59366,-0.30688 -1.18234,-0.64687 -1.76562,-1.01758 -0.54787,-0.40016 -1.01149,-0.84256 -1.39258,-1.32617 -0.35085,-0.48116 -0.47739,-1.02455 -0.37891,-1.63086 0.0829,-0.51058 0.28731,-0.91395 0.61133,-1.21094 0.35945,-0.32645 0.75152,-0.56899 1.17578,-0.72851 0.45451,-0.15708 0.91293,-0.24843 1.37695,-0.27539 0.49945,-0.0564 0.93005,-0.0705 1.29297,-0.041 1.24,0.10074 2.39198,0.46962 3.45313,1.10547 1.06115,0.63585 2.01817,1.43947 2.87109,2.41406 0.85292,0.97459 1.59724,2.05506 2.23242,3.23828 0.64036,1.15132 1.14355,2.29072 1.51172,3.41992 z m -38.17578,4.91016 c -1.3284,0.007 -2.64073,0.18774 -3.93946,0.54296 -1.73164,0.47364 -3.3117,1.23514 -4.73828,2.28321 -1.42139,1.01615 -2.63905,2.29204 -3.6543,3.82617 -1.01523,1.53412 -1.68188,3.27412 -1.99804,5.2207 -0.30061,1.85084 -0.24539,3.58543 0.16601,5.20313 0.4114,1.6177 1.08582,3.03049 2.02344,4.23828 0.96786,1.21025 2.15593,2.19597 3.56445,2.95703 1.43878,0.76353 3.00557,1.21397 4.69922,1.35156 1.24,0.10074 2.50964,0.0257 3.80664,-0.22461 1.32208,-0.21592 2.56505,-0.61703 3.73242,-1.20117 1.19762,-0.58168 2.27437,-1.35132 3.22657,-2.30859 0.95219,-0.95727 1.70353,-2.09106 2.2539,-3.4043 -0.70853,0.58908 -1.48061,1.09252 -2.31445,1.50977 -0.82866,0.38533 -1.69051,0.68589 -2.58398,0.90429 -0.89348,0.21841 -1.78775,0.35572 -2.68555,0.41211 -0.8978,0.0564 -1.77036,0.0512 -2.61719,-0.0176 -1.75414,-0.1425 -3.25391,-0.71808 -4.5,-1.72461 -1.24609,-1.00653 -1.91263,-2.46616 -2,-4.38085 l 18.52539,1.11718 0.10938,-0.66992 c 0.0665,-0.22092 0.11801,-0.44459 0.15429,-0.66797 0.31098,-1.91466 0.31293,-3.72363 0.008,-5.42968 -0.2697,-1.73551 -0.83043,-3.28601 -1.68164,-4.64844 -0.85122,-1.36244 -1.97226,-2.47132 -3.36524,-3.32813 -1.36273,-0.85434 -2.9823,-1.35743 -4.85742,-1.50976 -0.4461,-0.0362 -0.89119,-0.0532 -1.33398,-0.0508 z m -0.66602,4.86914 c 0.21527,-0.005 0.43528,10e-4 0.66211,0.0195 0.90732,0.0737 1.66246,0.32864 2.26562,0.76562 0.6386,0.40753 1.15169,0.93446 1.53711,1.58008 0.38543,0.64562 0.6484,1.37933 0.79102,2.19922 0.14263,0.81989 0.17516,1.66279 0.0957,2.5293 l -11.53711,-1.13086 c 0.28598,-0.81741 0.62686,-1.59805 1.02344,-2.3418 0.43201,-0.7732 0.9218,-1.42925 1.46875,-1.9668 0.55214,-0.56945 1.18974,-1.00186 1.91211,-1.29882 0.54178,-0.22273 1.13544,-0.34125 1.78125,-0.35547 z" />
    </g>
  </g>
</svg>
